<svg xmlns="http://www.w3.org/2000/svg" xmlns:xlink="http://www.w3.org/1999/xlink" version="1.1" id="Layer_1" x="0px" y="0px" enable-background="new 0 0 320 320" xml:space="preserve" viewBox="22.17 108.48 279.22 177.06">
<path fill="#ffffff" opacity="1.000000" stroke="none" d=" M286.973816,108.631401   C291.938843,108.630585 296.409363,108.630585 301.390747,108.630585   C300.422333,111.026154 298.563934,111.435356 297.080139,112.186211   C272.706085,124.520393 248.373047,136.938553 223.877182,149.026520   C219.448715,151.211853 218.066803,153.862350 218.113571,158.657074   C218.349258,182.819031 218.124725,206.985199 218.303665,231.148117   C218.346405,236.918777 216.675568,241.186081 212.095215,245.003860   C197.383942,257.265900 183.024384,269.949188 168.480972,282.413757   C163.622437,286.577789 159.583206,286.593018 154.671097,282.388824   C139.860519,269.712860 125.170738,256.895416 110.321663,244.264984   C106.415268,240.942261 104.978737,236.967926 104.998703,231.970139   C105.096603,207.473083 104.917694,182.974304 105.143112,158.478943   C105.187302,153.676254 103.769119,151.076248 99.331894,148.893692   C74.816452,136.835190 50.476322,124.420158 26.083031,112.113602   C24.772440,111.452400 23.524563,110.666893 22.173145,109.896889   C23.532816,107.786255 25.365318,108.660095 26.862272,108.657013   C51.026299,108.607346 75.190475,108.630539 99.354614,108.631660   C111.088272,108.632202 117.221016,114.634781 117.241211,126.427742   C117.291168,155.591339 117.252419,184.755096 117.249870,213.918777   C117.249695,215.918564 117.232193,217.918671 117.260170,219.918106   C117.382347,228.650848 121.423019,232.711609 130.154007,232.725372   C150.818527,232.757965 171.483154,232.750900 192.147705,232.733841   C202.216690,232.725525 206.048370,228.944641 206.059738,218.820557   C206.092453,189.656967 206.057922,160.493317 206.053284,131.329681   C206.052963,129.330246 205.971603,127.322906 206.114655,125.332664   C206.963211,113.528076 212.126801,108.659966 223.986923,108.633858   C244.817627,108.588005 265.648529,108.628120 286.973816,108.631401  z"/>
</svg>